
<svg width="24" height="24" viewBox="0 0 24 24" fill="none" xmlns="http://www.w3.org/2000/svg">
<path d="M16.9922 19H19.9922M19.9922 19H22.9922M19.9922 19V16M19.9922 19V22" stroke="#4fc3c5" stroke-width="1.5" stroke-linecap="round" stroke-linejoin="round"/>
<path d="M11 5C11 3.34315 9.65685 2 8 2C6.34315 2 5 3.34315 5 5V11C5 12.6569 6.34315 14 8 14C9.65685 14 11 12.6569 11 11V5Z" stroke="#4fc3c5" stroke-width="1.5"/>
<path d="M1 10V11C1 12.8565 1.7375 14.637 3.05025 15.9497C4.36301 17.2625 6.14348 18 8 18M8 18C9.85652 18 11.637 17.2625 12.9497 15.9497C14.2625 14.637 15 12.8565 15 11V10M8 18V22M8 22H5M8 22H11" stroke="#4fc3c5" stroke-width="1.5" stroke-linecap="round" stroke-linejoin="round"/>
</svg>
