<svg id="レイヤー_5" data-name="レイヤー 5" xmlns="http://www.w3.org/2000/svg" viewBox="0 0 90.07 90.07">
  <defs>
    <style>
      .cls-1{fill:#fff;}.cls-2{fill:#9fa0a0;}.cls-3{fill:#00b9ef;}
    </style>
  </defs>
  <rect class="cls-1" width="90.07" height="90.07" rx="18.56"/>
  <path class="cls-2" d="M154.71,651.17a1.71,1.71,0,0,0-.8.18,7.21,7.21,0,0,1-2.88.6c-3,0-6.54-1.81-6.54-6.89S148,638.2,151,638.2a7.2,7.2,0,0,1,2.9.6,1.75,1.75,0,0,0,.78.18,1.85,1.85,0,0,0,1.87-1.87,1.74,1.74,0,0,0-1.08-1.68,10,10,0,0,0-4.47-1c-4.95,0-10.28,3.32-10.28,10.6s5.33,10.63,10.28,10.63a10.36,10.36,0,0,0,4.43-.93,1.89,1.89,0,0,0,1.12-1.72A1.85,1.85,0,0,0,154.71,651.17Z" transform="translate(-127.49 -582.86)"/>
  <path class="cls-2" d="M169.86,634.46c-5,0-10.28,3.33-10.28,10.63v8.09a1.85,1.85,0,0,0,1.87,1.87,1.84,1.84,0,0,0,1.84-1.87v-8.09c0-3.43,2-6.89,6.57-6.89s6.53,3.46,6.53,6.89v8.09a1.87,1.87,0,1,0,3.74,0v-8.09C180.13,637.79,174.81,634.46,169.86,634.46Z" transform="translate(-127.49 -582.86)"/>
  <path class="cls-2" d="M202.56,634.78a1.84,1.84,0,0,0-1.84,1.87v8.09c0,3.43-2,6.89-6.57,6.89s-6.53-3.46-6.53-6.89v-8.09a1.87,1.87,0,1,0-3.74,0v8.09c0,7.3,5.32,10.63,10.27,10.63s10.27-3.33,10.27-10.63v-8.09A1.85,1.85,0,0,0,202.56,634.78Z" transform="translate(-127.49 -582.86)"/>
  <path class="cls-3" d="M202.64,642.87a1.85,1.85,0,0,0-1.87,1.87v9.64c0,3.43-2,6.89-6.53,6.89a1.87,1.87,0,0,0,0,3.74c4.94,0,10.27-3.32,10.27-10.63v-9.64A1.85,1.85,0,0,0,202.64,642.87Z" transform="translate(-127.49 -582.86)"/>
  <path class="cls-3" d="M161.45,625.31a1.85,1.85,0,0,0-1.87,1.87v17.66a1.87,1.87,0,0,0,3.74,0V627.18A1.85,1.85,0,0,0,161.45,625.31Z" transform="translate(-127.49 -582.86)"/>
  <path class="cls-2" d="M207.55,608.11a1.84,1.84,0,0,0-1.84,1.87v8.09c0,3.43-2,6.89-6.57,6.89s-6.53-3.46-6.53-6.89V610a1.87,1.87,0,0,0-3.74,0v8.09c0,7.3,5.33,10.63,10.27,10.63s10.28-3.33,10.28-10.63V610A1.85,1.85,0,0,0,207.55,608.11Z" transform="translate(-127.49 -582.86)"/>
  <path class="cls-3" d="M167.09,598.38a1.83,1.83,0,0,0-1.84,1.86v25.81a1.84,1.84,0,1,0,3.67,0V600.24A1.83,1.83,0,0,0,167.09,598.38Z" transform="translate(-127.49 -582.86)"/>
  <path class="cls-2" d="M175.53,613.72c-4.95,0-10.28,3.33-10.28,10.63v1.75a1.85,1.85,0,0,0,1.87,1.87A1.83,1.83,0,0,0,169,626.1v-1.75c0-3.43,2-6.89,6.58-6.89s6.53,3.46,6.53,6.89v1.75a1.87,1.87,0,1,0,3.74,0v-1.75C185.8,617.05,180.47,613.72,175.53,613.72Z" transform="translate(-127.49 -582.86)"/>
  <path class="cls-3" d="M185.43,602.85a1.81,1.81,0,0,0-.77-1.21,1.87,1.87,0,0,0-1.39-.33,1.89,1.89,0,0,0-1.21.77L174,613.72a1.85,1.85,0,0,0,.44,2.6,1.91,1.91,0,0,0,1.09.35l.31,0a1.86,1.86,0,0,0,1.21-.78l8.05-11.63A1.86,1.86,0,0,0,185.43,602.85Z" transform="translate(-127.49 -582.86)"/>
  <path class="cls-2" d="M148.38,604.18c5.19,0,9.42,4.64,9.42,10.33s-4.23,10.33-9.42,10.33S139,620.21,139,614.51s4.22-10.33,9.41-10.33m0-3.85c-7.32,0-13.26,6.35-13.26,14.18s5.94,14.19,13.26,14.19,13.27-6.35,13.27-14.19-5.94-14.18-13.27-14.18Z" transform="translate(-127.49 -582.86)"/>
</svg>
