<svg id="レイヤー_5" data-name="レイヤー 5" xmlns="http://www.w3.org/2000/svg" xmlns:xlink="http://www.w3.org/1999/xlink"
  viewBox="0 0 900 900">
  <defs>
    <style>
      .cls-1 {
        fill: none;
      }

      .cls-2 {
        isolation: isolate;
      }

      .cls-3 {
        opacity: 0.36;
        mix-blend-mode: multiply;
      }

      .cls-4 {
        clip-path: url(#clip-path);
      }

      .cls-5 {
        fill: #70c5ca;
      }

      .cls-6 {
        fill: #3e3a39;
      }
    </style>
    <clipPath id="clip-path">
      <path id="SVGID" class="cls-1"
        d="M-19.63,914.23l940-1.3a1.24,1.24,0,0,0,1.34-1.11L920.3-78.55A1.24,1.24,0,0,0,919-79.66L-21-78.37a1.24,1.24,0,0,0-1.34,1.11L-21,913.12A1.24,1.24,0,0,0-19.63,914.23Z" />
    </clipPath>
  </defs>
  <title>Artboard 1</title>
  <g class="cls-2">
    <g id="Layer_1" data-name="Layer 1">
      <g class="cls-3">
        <g class="cls-4">
          <path class="cls-5"
            d="M851,913l-801.23,1.1C10.69,914.19-21,897.56-21,877L-22.28-41.14c0-20.56,31.6-37.27,70.65-37.32l801.23-1.1c39-.06,70.72,16.56,70.75,37.13l1.26,918.14C921.64,896.27,890,913,851,913" />
        </g>
      </g>
    </g>
    <g id="Layer_2" data-name="Layer 2">
      <path class="cls-6"
        d="M199.84,309.91c-2.57,2-27.68,21.63-36.54,21.63-4.85,0-13.41-3.75-13.41-13.84,0-8.37,4.57-11.25,14.56-17.89,20-13,29.11-20.77,35.39-26.82V253.37c-14.28-10.67-21.41-14.71-32.54-21.06-6.85-3.75-12.84-8.07-12.84-15.86,0-5.19,4-13.27,14.27-13.27,4,0,6.27.58,8.56,2,8.56,4.61,19.12,11.25,22.55,13.27V186.73c0-9.51,0-13.55,2-16.44s5.71-6.63,11.7-6.63a13.79,13.79,0,0,1,9.71,4.33c4,3.75,4,6.92,4,18.74v175.1c0,9.52,0,13.56-2,16.73a14.19,14.19,0,0,1-11.7,6.35,13.52,13.52,0,0,1-9.7-4c-4-4-4-6.92-4-19Zm187.5-174.52c12,0,22.55,5.48,22.55,21.35v20.48c0,11.83,0,15-4,19a15,15,0,0,1-10,4.05c-12.27,0-12.27-13-12.27-23.08V163.66c0-4.62-1.71-4.9-6.85-4.9H190.7c-4.56,0-6.28,3.46-6.28,7.21v11.25c0,9.23,0,13.27-2,16.44-3.42,5.19-7.7,6.64-11.41,6.64-5.71,0-9.42-3.75-11.42-6.64-2-3.17-2-7.21-2-16.44v-19c0-6.06,1.42-12.69,6.85-17.89,4.57-4.9,9.41-4.9,14.27-4.9h87.33c0-8.08,0-19.9,14.84-19.9,16,0,16,11.25,16,19.9Zm-152.69,139c0-13.27,7.84-20.19,17.15-20.19H372.54a17.17,17.17,0,0,1,8.81,3.46c4.42,3.75,6.13,7.21,6.13,15.58v15.86c0,9.81,0,13.27-2,16.44-2.45,4-5.88,5.77-9.31,5.77-4.41,0-7.34-3.46-8.57-5.77-2-3.46-2-6.92-2-16.44v-6.92c0-6.35-.49-6.35-4.9-6.35H261.59c-2.94,0-7.1.86-7.1,8.94v4.33c0,13,0,23.94-10.29,23.94-9.55,0-9.55-12.11-9.55-23.94Zm45.56,31.73c-9.07,0-19.11,0-19.11-11.54a10.14,10.14,0,0,1,4.41-8.07c2.21-1.74,4.16-1.74,14.45-1.74H342.9c14,0,19.1,9.52,19.1,16.45,0,15.57-16.16,34.61-24.49,42.69,18.62,8.07,26.95,10.67,40.66,14.42,5.14,1.73,12.25,3.75,12.25,15.29,0,7.21-6.13,11.83-10.29,11.83-5.39,0-34.78-6.35-65.15-23.08-30.12,18.46-61.47,22.79-67.59,22.79-10,0-11.76-10.68-11.76-13.27,0-4.91,3.19-11.83,9.31-13.56,2.69-.58,14.2-2.88,16.65-3.46,19.59-4.62,24-6.92,27.92-8.94-6.86-4.91-13.95-10.1-18.61-15.58a13.25,13.25,0,0,1-3.43-9.23c0-12.12,9.55-13.27,10.78-13.27,4.4,0,10,5.19,13.47,8.36,8.33,7.51,16.65,12.41,20.08,14.71,2-1.73,18.86-15.28,18.86-22.2,0-2.6-.74-2.6-2.21-2.6Zm-15.3-89.71c-12.85,0-22.26,0-22.26-10.1,0-9.8,9.41-9.8,22.26-9.8h88.76c0-3.47,0-9.23-4.86-9.23h-83.9c-16.56,0-22.26,0-22.26-9.53,0-9.8,7.42-9.8,22.26-9.8H358.8c9.71,0,12.27,2.3,15.13,4.9,3.71,3.46,6.28,7.79,6.28,16.73v37.21c0,13-7.42,19.33-19.7,19.33h-95.6c-14.56,0-22,0-22-10.38,0-4.33,4-6.93,4.85-7.22,2.86-2,4.28-2,17.13-2h82.48c2.85,0,6.28,0,6.28-5.49v-4.61Z" />
      <path class="cls-6"
        d="M754.18,567c24,0,34.41,12.86,34.41,34.28,0,33.63-25.72,113.42-103.24,154.3-28.85,15.16-60.13,26-93.15,28.68a16.8,16.8,0,0,1-3.48.33c-14.25,0-21.2-7.25-21.2-18.79C567.52,751.29,579,750,587,749c75.07-9.24,117.48-43.19,141.46-84.74,15.65-26.37,19.13-46.81,19.13-53.08,0-7.91-2.79-8.23-11.82-8.23h-105c-25,36.92-66.39,70.87-84.46,70.87-11.48,0-17.73-8.24-17.73-18.13,0-7.91,3.82-10.88,12.17-16.48,39.28-26.05,58.74-52.42,82-109.46,2.78-7.25,6.6-16.15,19.81-16.15,4.52,0,11.47,2,15.64,5.27,3.47,3,5.22,7.25,5.22,12.53,0,7.91-8.35,26.71-12.52,35.61Z" />
      <path class="cls-6"
        d="M313.68,739.84c-47.76,40.95-97.69,54.83-110.82,54.83-17.49,0-20.77-14.92-20.77-20.82,0-14.58,10.57-17.35,21.14-20.48C283.05,731.51,337,668,353.77,616c8-25,11.3-50.67,13.12-68.72.36-7.63,1.82-22.56,23-22.56,11.3,0,19.69,7.29,19.69,17,0,63.51-29.9,141.24-95.86,198.16" />
      <path class="cls-6"
        d="M249.78,641.28c0,13.19-12.77,18.39-21.14,18.39-10.58,0-13.85-5.55-22.61-20.12a686.51,686.51,0,0,0-41.91-61.78c-12.39-16-14.58-20.47-14.58-25.68,0-10.41,9.84-19.78,21.14-19.78,6.93,0,11.66,4.85,16.77,10.76,25.88,29.15,41.55,54.83,49.2,67,4,6.59,13.13,21.16,13.13,31.23" />
      <path class="cls-6"
        d="M696.74,212c66.69,0,96.82,44,96.82,82.26,0,67.93-75.83,95.57-122.55,95.57-29.79,0-85.65-11.94-85.65-54.27C585.36,300.76,618.2,284,650,284c32.84,0,50.45,16.38,59.58,27.64,9.82,12.3,11.51,20.15,13.55,29,8.12-4.44,31.14-17.07,31.14-42.66,0-9.22-2.71-31.75-28.1-43.7-15.23-7.16-32.15-9.22-48.75-9.22-48.75,0-77.19,16.05-98.51,33.8-12.87,10.58-16.93,14-25.73,14-14.56,0-19.64-13-19.64-20.82,0-10.24,6.43-16,20.31-24.23,37.24-22.53,105.63-69.64,127-87.05-1.36.35-79.9,6.49-91.75,6.49-6.43,0-24.37,0-24.37-20.14,0-19.46,13.2-19.46,26.4-19.46,45.37,0,91.75-3.07,104.95-4.09,5.08-.69,27.42-3.76,32.17-3.76,5.75,0,21.32,2.05,21.32,23.22,0,10.58-4.06,14.33-14.56,21.84-19.29,14.68-51.79,36.86-71.43,51.2,7.79-2.05,16.59-4.09,33.18-4.09M646,320.56c-17.61,0-18.62,10.24-18.62,11.95,0,12.29,27.08,24.91,47.73,24.91a65,65,0,0,0,15.92-2c-1.7-21.17-22.35-34.82-45-34.82" />
    </g>
  </g>
</svg>